<?xml version="1.0" encoding="utf-8"?>
<!-- Generator: Adobe Illustrator 19.0.0, SVG Export Plug-In . SVG Version: 6.00 Build 0)  -->
<svg version="1.1" id="Capa_1" xmlns="http://www.w3.org/2000/svg" xmlns:xlink="http://www.w3.org/1999/xlink" x="0px" y="0px"
	 viewBox="-247 370.9 320 320" style="enable-background:new -247 370.9 320 320;" xml:space="preserve">
<style type="text/css">
	.st0{fill:#D5D4D6;}
	.st1{fill:#FFFFFF;}
</style>
<rect x="-247" y="370.9" class="st0" width="320" height="320"/>
<g>
	<g>
		<path class="st1" d="M-87,520.9c-8.3,0-15,6.7-15,15c0,8.3,6.7,15,15,15c8.3,0,15-6.7,15-15C-72,527.6-78.7,520.9-87,520.9z
			 M-47,505.9h-12c-1.7,0-3.4-1.3-3.9-2.8l-3.1-9.3c-0.5-1.6-2.3-2.8-3.9-2.8h-34c-1.7,0-3.4,1.3-3.9,2.8l-3.1,9.3
			c-0.5,1.6-2.3,2.8-3.9,2.8h-12c-5.5,0-10,4.5-10,10v45c0,5.5,4.5,10,10,10h80c5.5,0,10-4.5,10-10v-45
			C-37,510.4-41.5,505.9-47,505.9z M-87,560.9c-13.8,0-25-11.2-25-25c0-13.8,11.2-25,25-25c13.8,0,25,11.2,25,25
			C-62,549.7-73.2,560.9-87,560.9z M-50.5,522.9c-1.9,0-3.5-1.6-3.5-3.5c0-1.9,1.6-3.5,3.5-3.5c1.9,0,3.5,1.6,3.5,3.5
			C-47,521.3-48.6,522.9-50.5,522.9z"/>
	</g>
</g>
</svg>
