<svg xmlns="http://www.w3.org/2000/svg" viewBox="0 0 44 32"><defs><style>.cls-1{fill:#b2bdd7;}</style></defs><title>contact</title><g id="Layer_2" data-name="Layer 2"><g id="Layer_1-2" data-name="Layer 1"><path class="cls-1" d="M40,0H4A4,4,0,0,0,0,4V28a4,4,0,0,0,4,4H40a4,4,0,0,0,4-4V4a4,4,0,0,0-4-4M4,2H40a2,2,0,0,1,.67.12L23.35,19.43a1.91,1.91,0,0,1-2.71,0L3.33,2.12A2,2,0,0,1,4,2M2,28V4a2.1,2.1,0,0,1,0-.35L14.38,16,2,28.35A2.1,2.1,0,0,1,2,28m38,2H4a2,2,0,0,1-.67-.12L15.8,17.41l3.43,3.43a3.92,3.92,0,0,0,5.54,0l3.43-3.43L40.67,29.88A2,2,0,0,1,40,30m2-2a2.1,2.1,0,0,1,0,.35L29.62,16,42,3.65A2.1,2.1,0,0,1,42,4Z"/></g></g></svg>