<svg xmlns="http://www.w3.org/2000/svg" viewBox="0 0 40 44"><defs><style>.cls-1{fill:#fff;}</style></defs><title>filter</title><g id="Layer_2" data-name="Layer 2"><g id="Layer_1-2" data-name="Layer 1"><path class="cls-1" d="M20,0C9,0,0,2.69,0,6,0,18,16,20,16,30v1h0c0,1.46,0,2.76,0,3.92A.75.75,0,0,0,16,35a.88.88,0,0,0,0,.1c.09,7.47.64,8.9,4,8.9,4,0,4-2,4-14C24,20,40,18,40,6c0-3.31-9-6-20-6M30.19,17.64C26.17,20.9,22,24.27,22,30s0,9.25-.44,11c-.22.89-.25,1-1.56,1s-1.34-.09-1.56-1A25.51,25.51,0,0,1,18,36h1a1,1,0,0,0,0-2H18c0-.63,0-1.29,0-2h1a1,1,0,0,0,0-2H18c0-5.73-4.17-9.1-8.19-12.36C6.56,15,3.47,12.5,2.4,8.85,5.78,10.73,12.39,12,20,12s14.21-1.27,17.6-3.15c-1.08,3.66-4.16,6.17-7.4,8.78M20,10C10.06,10,2,8.21,2,6s8.06-4,18-4S38,3.79,38,6s-8.06,4-18,4"/></g></g></svg>