<svg xmlns="http://www.w3.org/2000/svg" viewBox="0 0 44 36"><defs><style>.cls-1{fill:#b2bdd7;}</style></defs><title>start-list</title><g id="Layer_2" data-name="Layer 2"><g id="Layer_1-2" data-name="Layer 1"><path class="cls-1" d="M9.22,20.85a1,1,0,0,1,1-1H33.78a1,1,0,0,1,0,2H10.22a1,1,0,0,1-1-1m1-3H33.78a1,1,0,0,0,0-2H10.22a1,1,0,0,0,0,2m0,8H33.78a1,1,0,0,0,0-2H10.22a1,1,0,0,0,0,2m0,4.06H33.78a1,1,0,0,0,0-2H10.22a1,1,0,0,0,0,2M44,8V32a4,4,0,0,1-4,4H4a4,4,0,0,1-4-4V4A4,4,0,0,1,4,0H14c4,0,4,4,8,4H40a4,4,0,0,1,4,4m-2,4H2V32a2,2,0,0,0,2,2H40a2,2,0,0,0,2-2Zm0-4a2,2,0,0,0-2-2H22c-5,0-5-4-8-4H4A2,2,0,0,0,2,4v6H42Z"/></g></g></svg>