<svg xmlns="http://www.w3.org/2000/svg" viewBox="0 0 44 44"><defs><style>.cls-1{fill:#b2bdd7;}</style></defs><title>settings</title><g id="Layer_2" data-name="Layer 2"><g id="Layer_1-2" data-name="Layer 1"><path class="cls-1" d="M42.53,17.6l-2.12-.53a18.91,18.91,0,0,0-1.91-4.6l1.13-1.88a1.73,1.73,0,0,0,0-2.07L35.48,4.37a1.23,1.23,0,0,0-.9-.36,2.38,2.38,0,0,0-1.17.36L31.52,5.5a19,19,0,0,0-4.59-1.9L26.4,1.47C26.17.75,25.74,0,24.93,0H19.07c-.81,0-1.28.75-1.47,1.47L17.07,3.6a19,19,0,0,0-4.59,1.9L10.59,4.37A2.38,2.38,0,0,0,9.42,4a1.23,1.23,0,0,0-.9.36L4.37,8.52a1.73,1.73,0,0,0,0,2.07L5.5,12.47a18.91,18.91,0,0,0-1.91,4.6l-2.12.53C.75,17.78,0,18.26,0,19.07v5.87c0,.81.75,1.24,1.47,1.47l2.12.53a18.89,18.89,0,0,0,1.91,4.6L4.37,33.41a1.69,1.69,0,0,0,0,2.07l4.15,4.15a1.19,1.19,0,0,0,.87.35,2.74,2.74,0,0,0,1.2-.35l1.89-1.13a19,19,0,0,0,4.59,1.9l.53,2.14c.18.72.66,1.47,1.47,1.47h5.87c.81,0,1.24-.75,1.47-1.47l.53-2.14a19,19,0,0,0,4.59-1.9l1.89,1.13a2.74,2.74,0,0,0,1.2.35,1.19,1.19,0,0,0,.87-.35l4.15-4.15a1.69,1.69,0,0,0,0-2.07L38.5,31.53a18.89,18.89,0,0,0,1.91-4.6l2.12-.53c.72-.23,1.47-.66,1.47-1.47V19.07c0-.81-.75-1.28-1.47-1.47M42,24.47h0l-2,.51a2,2,0,0,0-1.45,1.42,16.93,16.93,0,0,1-1.71,4.11,2,2,0,0,0,0,2l1.1,1.84L34.4,37.89h0l-1.83-1.09a2,2,0,0,0-2,0,17,17,0,0,1-4.1,1.7A2,2,0,0,0,25,39.91L24.48,42v0H19.53L19,39.91a2,2,0,0,0-1.42-1.45,17,17,0,0,1-4.1-1.7,2,2,0,0,0-2,0L9.63,37.88h0L6.11,34.4l1.1-1.84a2,2,0,0,0,0-2,16.89,16.89,0,0,1-1.71-4.11A2,2,0,0,0,4.07,25l-2-.51H2V19.53L4.07,19a2,2,0,0,0,1.45-1.42,16.89,16.89,0,0,1,1.71-4.11,2,2,0,0,0,0-2L6.12,9.63v0L9.6,6.11l1.85,1.11a2,2,0,0,0,2,0,16.94,16.94,0,0,1,4.1-1.7A2,2,0,0,0,19,4.09L19.53,2h4.94V2L25,4.09a2,2,0,0,0,1.42,1.45,17,17,0,0,1,4.1,1.7,2,2,0,0,0,2,0l1.85-1.11L37.89,9.6v0l-1.09,1.81a2,2,0,0,0,0,2,16.93,16.93,0,0,1,1.71,4.11A2,2,0,0,0,39.93,19l2.07.52ZM22,12A10,10,0,1,0,32,22,10,10,0,0,0,22,12m0,18a8,8,0,1,1,8-8,8,8,0,0,1-8,8"/></g></g></svg>